<mxfile host="app.diagrams.net" agent="Mozilla/5.0 (Windows NT 10.0; Win64; x64) AppleWebKit/537.36 (KHTML, like Gecko) Chrome/137.0.0.0 Safari/537.36 Edg/137.0.0.0" version="27.1.4">
  <diagram id="f106602c-feb2-e66a-4537-3a34d633f6aa" name="Page-1">
    <mxGraphModel dx="1418" dy="756" grid="1" gridSize="10" guides="1" tooltips="1" connect="1" arrows="1" fold="1" page="1" pageScale="1" pageWidth="1169" pageHeight="827" background="none" math="0" shadow="0">
      <root>
        <mxCell id="0" />
        <mxCell id="1" parent="0" />
        <mxCell id="GuzJ8BqgIlNCJu6hI-l5-1007" value="&lt;b&gt;CFCA JOB&amp;nbsp;&lt;/b&gt;工作流特性" style="fillColor=#F6F6F6;strokeColor=none;shadow=0;gradientColor=none;fontSize=14;align=left;spacing=10;fontColor=#717171;9E9E9E;verticalAlign=top;spacingTop=-4;fontStyle=0;spacingLeft=40;html=1;container=0;" parent="1" vertex="1">
          <mxGeometry x="80" y="110" width="658" height="520" as="geometry" />
        </mxCell>
        <mxCell id="GuzJ8BqgIlNCJu6hI-l5-1012" value="&lt;font style=&quot;color: rgb(51, 0, 0); font-size: 14px;&quot;&gt;&lt;b style=&quot;&quot;&gt;&amp;nbsp; &amp;nbsp; &amp;nbsp; &amp;nbsp; &amp;nbsp; 智能依赖处理&lt;/b&gt;&lt;/font&gt;" style="rounded=1;absoluteArcSize=1;arcSize=2;html=1;strokeColor=#4284F3;gradientColor=none;shadow=0;dashed=1;fontSize=12;fontColor=#9E9E9E;align=left;verticalAlign=top;spacing=10;spacingTop=-4;fillColor=none;dashPattern=1 2;strokeWidth=2;" parent="1" vertex="1">
          <mxGeometry x="115.25" y="170" width="234.75" height="610" as="geometry" />
        </mxCell>
        <mxCell id="CSGueSKlKxgK1yheR6nM-3" value="" style="outlineConnect=0;dashed=0;verticalLabelPosition=bottom;verticalAlign=top;align=center;html=1;shape=mxgraph.aws3.alexa_smart_home_skill;fillColor=#5294CF;gradientColor=none;aspect=fixed;" vertex="1" parent="1">
          <mxGeometry x="124.25" y="175" width="30" height="23.5" as="geometry" />
        </mxCell>
        <mxCell id="CSGueSKlKxgK1yheR6nM-5" value="" style="group" vertex="1" connectable="0" parent="1">
          <mxGeometry x="125.25" y="205" width="217.36" height="130" as="geometry" />
        </mxCell>
        <mxCell id="GuzJ8BqgIlNCJu6hI-l5-1014" value="&lt;font style=&quot;color: rgb(51, 0, 0); font-size: 13px;&quot;&gt;&lt;b&gt;&amp;nbsp; &amp;nbsp; &amp;nbsp; &amp;nbsp; &amp;nbsp; 核心依赖模型&lt;/b&gt;&lt;/font&gt;" style="rounded=1;absoluteArcSize=1;arcSize=2;html=1;strokeColor=none;gradientColor=none;shadow=0;dashed=0;fontSize=12;fontColor=#9E9E9E;align=left;verticalAlign=top;spacing=10;spacingTop=-4;fillColor=#EFEBE9;" parent="CSGueSKlKxgK1yheR6nM-5" vertex="1">
          <mxGeometry width="214.75" height="130" as="geometry" />
        </mxCell>
        <mxCell id="CSGueSKlKxgK1yheR6nM-2" value="&lt;div style=&quot;&quot;&gt;&lt;font style=&quot;background-color: transparent; color: light-dark(rgb(0, 0, 0), rgb(255, 255, 255)); font-size: 19px;&quot;&gt;▸&lt;/font&gt;&lt;font style=&quot;background-color: transparent; color: light-dark(rgb(0, 0, 0), rgb(255, 255, 255));&quot;&gt;&lt;b&gt;工作流拓扑结构:&lt;/b&gt;&lt;br&gt;&amp;nbsp; &amp;nbsp; &amp;nbsp;标准有向无环图DAG&lt;br&gt;&lt;font style=&quot;color: light-dark(rgb(0, 0, 0), rgb(255, 255, 255)); background-color: transparent; font-size: 19px;&quot;&gt;▸&lt;/font&gt;&lt;font style=&quot;color: light-dark(rgb(0, 0, 0), rgb(255, 255, 255)); background-color: transparent;&quot;&gt;&lt;b&gt;依赖关系字典:&lt;/b&gt;&lt;br&gt;&amp;nbsp; &amp;nbsp; &amp;nbsp;内部维护任务上下游关系&lt;/font&gt;&lt;/font&gt;&lt;/div&gt;" style="text;strokeColor=none;align=left;fillColor=none;html=1;verticalAlign=middle;whiteSpace=wrap;rounded=0;" vertex="1" parent="CSGueSKlKxgK1yheR6nM-5">
          <mxGeometry x="15.64" y="35" width="201.72" height="85" as="geometry" />
        </mxCell>
        <mxCell id="CSGueSKlKxgK1yheR6nM-4" value="" style="sketch=0;outlineConnect=0;fontColor=#232F3E;gradientColor=none;fillColor=#01A88D;strokeColor=none;dashed=0;verticalLabelPosition=bottom;verticalAlign=top;align=center;html=1;fontSize=12;fontStyle=0;aspect=fixed;pointerEvents=1;shape=mxgraph.aws4.sagemaker_model;" vertex="1" parent="CSGueSKlKxgK1yheR6nM-5">
          <mxGeometry x="15.641881638846739" y="6" width="25" height="25" as="geometry" />
        </mxCell>
        <mxCell id="CSGueSKlKxgK1yheR6nM-6" value="" style="group" vertex="1" connectable="0" parent="1">
          <mxGeometry x="126.13" y="349" width="213.87" height="130" as="geometry" />
        </mxCell>
        <mxCell id="CSGueSKlKxgK1yheR6nM-7" value="&lt;font style=&quot;color: rgb(51, 0, 0); font-size: 13px;&quot;&gt;&lt;b&gt;&amp;nbsp; &amp;nbsp; &amp;nbsp; &amp;nbsp; &amp;nbsp; 内置合法性校验&lt;/b&gt;&lt;/font&gt;" style="rounded=1;absoluteArcSize=1;arcSize=2;html=1;strokeColor=none;gradientColor=none;shadow=0;dashed=0;fontSize=12;fontColor=#9E9E9E;align=left;verticalAlign=top;spacing=10;spacingTop=-4;fillColor=#EFEBE9;" vertex="1" parent="CSGueSKlKxgK1yheR6nM-6">
          <mxGeometry width="213.86999999999998" height="100" as="geometry" />
        </mxCell>
        <mxCell id="CSGueSKlKxgK1yheR6nM-8" value="&lt;div style=&quot;&quot;&gt;&lt;font style=&quot;background-color: transparent; color: light-dark(rgb(0, 0, 0), rgb(255, 255, 255)); font-size: 19px;&quot;&gt;▸&lt;/font&gt;&lt;font style=&quot;background-color: transparent; color: light-dark(rgb(0, 0, 0), rgb(255, 255, 255));&quot;&gt;&lt;b&gt;内置合法性校验:&lt;/b&gt;&lt;br&gt;&lt;div style=&quot;&quot;&gt;&lt;span style=&quot;background-color: transparent; color: light-dark(rgb(0, 0, 0), rgb(255, 255, 255));&quot;&gt;&amp;nbsp; &amp;nbsp; &amp;nbsp;工作流保存时自动进行环路和&amp;nbsp; &amp;nbsp; &amp;nbsp; &amp;nbsp; &amp;nbsp; &amp;nbsp; &amp;nbsp;配置的有效性检查&lt;/span&gt;&lt;/div&gt;&lt;/font&gt;&lt;/div&gt;" style="text;strokeColor=none;align=left;fillColor=none;html=1;verticalAlign=middle;whiteSpace=wrap;rounded=0;" vertex="1" parent="CSGueSKlKxgK1yheR6nM-6">
          <mxGeometry x="12.981487101669195" y="31" width="200.88851289833082" height="70" as="geometry" />
        </mxCell>
        <mxCell id="CSGueSKlKxgK1yheR6nM-11" value="" style="sketch=0;html=1;aspect=fixed;strokeColor=none;shadow=0;fillColor=#3B8DF1;verticalAlign=top;labelPosition=center;verticalLabelPosition=bottom;shape=mxgraph.gcp2.check" vertex="1" parent="CSGueSKlKxgK1yheR6nM-6">
          <mxGeometry x="18.005322610015178" y="11" width="25" height="20" as="geometry" />
        </mxCell>
        <mxCell id="CSGueSKlKxgK1yheR6nM-17" value="&lt;font style=&quot;color: rgb(51, 0, 0); font-size: 13px;&quot;&gt;&lt;b&gt;&amp;nbsp; &amp;nbsp; &amp;nbsp; &amp;nbsp; &amp;nbsp; 跨节点数据依赖&lt;/b&gt;&lt;/font&gt;" style="rounded=1;absoluteArcSize=1;arcSize=2;html=1;strokeColor=none;gradientColor=none;shadow=0;dashed=0;fontSize=12;fontColor=#9E9E9E;align=left;verticalAlign=top;spacing=10;spacingTop=-4;fillColor=#EFEBE9;" vertex="1" parent="1">
          <mxGeometry x="130" y="610" width="210" height="160" as="geometry" />
        </mxCell>
        <mxCell id="CSGueSKlKxgK1yheR6nM-18" value="&lt;div style=&quot;&quot;&gt;&lt;font style=&quot;background-color: transparent; color: light-dark(rgb(0, 0, 0), rgb(255, 255, 255)); font-size: 19px;&quot;&gt;▸&lt;/font&gt;&lt;font style=&quot;background-color: transparent; color: light-dark(rgb(0, 0, 0), rgb(255, 255, 255));&quot;&gt;&lt;b&gt;全局上下文:&lt;/b&gt;&lt;br&gt;&amp;nbsp; &amp;nbsp; &amp;nbsp;提供工作流级别的上下文环&amp;nbsp; &amp;nbsp; &amp;nbsp; &amp;nbsp; &amp;nbsp; &amp;nbsp;境，用于共享状态与数据&lt;br&gt;&lt;font style=&quot;color: light-dark(rgb(0, 0, 0), rgb(255, 255, 255)); background-color: transparent; font-size: 19px;&quot;&gt;▸&lt;/font&gt;&lt;font style=&quot;color: light-dark(rgb(0, 0, 0), rgb(255, 255, 255)); background-color: transparent;&quot;&gt;&lt;b&gt;数据安全传递:&lt;/b&gt;&lt;br&gt;&amp;nbsp; &amp;nbsp; &amp;nbsp;支持上游节点的执行结果作为&amp;nbsp; &amp;nbsp; &amp;nbsp; &amp;nbsp;下游节点的输入&lt;/font&gt;&lt;/font&gt;&lt;/div&gt;" style="text;strokeColor=none;align=left;fillColor=none;html=1;verticalAlign=middle;whiteSpace=wrap;rounded=0;" vertex="1" parent="1">
          <mxGeometry x="144.18" y="650" width="182.93" height="110" as="geometry" />
        </mxCell>
        <mxCell id="CSGueSKlKxgK1yheR6nM-13" value="&lt;font style=&quot;color: rgb(51, 0, 0); font-size: 13px;&quot;&gt;&lt;b&gt;&amp;nbsp; &amp;nbsp; &amp;nbsp; &amp;nbsp; &amp;nbsp; 实时就绪状态计算&lt;/b&gt;&lt;/font&gt;" style="rounded=1;absoluteArcSize=1;arcSize=2;html=1;strokeColor=none;gradientColor=none;shadow=0;dashed=0;fontSize=12;fontColor=#9E9E9E;align=left;verticalAlign=top;spacing=10;spacingTop=-4;fillColor=#EFEBE9;" vertex="1" parent="1">
          <mxGeometry x="127" y="460" width="210.44974887118866" height="140" as="geometry" />
        </mxCell>
        <mxCell id="CSGueSKlKxgK1yheR6nM-14" value="&lt;div style=&quot;&quot;&gt;&lt;font style=&quot;background-color: transparent; color: light-dark(rgb(0, 0, 0), rgb(255, 255, 255)); font-size: 19px;&quot;&gt;▸&lt;/font&gt;&lt;font style=&quot;background-color: transparent; color: light-dark(rgb(0, 0, 0), rgb(255, 255, 255));&quot;&gt;&lt;b&gt;调度引擎核心:&lt;/b&gt;&lt;br&gt;&amp;nbsp; &amp;nbsp; &amp;nbsp;实时扫描并计算可执行任务&lt;br&gt;&lt;font style=&quot;color: light-dark(rgb(0, 0, 0), rgb(255, 255, 255)); background-color: transparent; font-size: 19px;&quot;&gt;▸&lt;/font&gt;&lt;font style=&quot;color: light-dark(rgb(0, 0, 0), rgb(255, 255, 255)); background-color: transparent;&quot;&gt;&lt;b&gt;状态驱动执行:&lt;/b&gt;&lt;br&gt;&amp;nbsp; &amp;nbsp; &amp;nbsp;任务完成会自动触发下游任务&amp;nbsp; &amp;nbsp; &amp;nbsp; &amp;nbsp;执行&lt;/font&gt;&lt;/font&gt;&lt;/div&gt;" style="text;strokeColor=none;align=left;fillColor=none;html=1;verticalAlign=middle;whiteSpace=wrap;rounded=0;" vertex="1" parent="1">
          <mxGeometry x="142.32" y="500" width="177.68" height="90" as="geometry" />
        </mxCell>
        <mxCell id="CSGueSKlKxgK1yheR6nM-20" value="" style="verticalLabelPosition=bottom;html=1;verticalAlign=top;align=center;strokeColor=none;fillColor=#00BEF2;shape=mxgraph.azure.laptop;pointerEvents=1;aspect=fixed;" vertex="1" parent="1">
          <mxGeometry x="141" y="470" width="25" height="15" as="geometry" />
        </mxCell>
        <mxCell id="CSGueSKlKxgK1yheR6nM-22" value="" style="html=1;verticalLabelPosition=bottom;align=center;labelBackgroundColor=#ffffff;verticalAlign=top;strokeWidth=2;strokeColor=#0080F0;shadow=0;dashed=0;shape=mxgraph.ios7.icons.data;aspect=fixed;" vertex="1" parent="1">
          <mxGeometry x="144" y="619" width="20" height="24.25" as="geometry" />
        </mxCell>
        <mxCell id="CSGueSKlKxgK1yheR6nM-23" value="&lt;font style=&quot;color: rgb(51, 0, 0); font-size: 14px;&quot;&gt;&lt;b style=&quot;&quot;&gt;&amp;nbsp; &amp;nbsp; &amp;nbsp; &amp;nbsp; &amp;nbsp; 精细化前置条件&lt;/b&gt;&lt;/font&gt;" style="rounded=1;absoluteArcSize=1;arcSize=2;html=1;strokeColor=#4284F3;gradientColor=none;shadow=0;dashed=1;fontSize=12;fontColor=#9E9E9E;align=left;verticalAlign=top;spacing=10;spacingTop=-4;fillColor=none;dashPattern=1 2;strokeWidth=2;" vertex="1" parent="1">
          <mxGeometry x="390" y="170" width="234.75" height="610" as="geometry" />
        </mxCell>
        <mxCell id="CSGueSKlKxgK1yheR6nM-24" value="" style="outlineConnect=0;dashed=0;verticalLabelPosition=bottom;verticalAlign=top;align=center;html=1;shape=mxgraph.aws3.alexa_smart_home_skill;fillColor=#5294CF;gradientColor=none;aspect=fixed;" vertex="1" parent="1">
          <mxGeometry x="399" y="175" width="30" height="23.5" as="geometry" />
        </mxCell>
        <mxCell id="CSGueSKlKxgK1yheR6nM-33" value="&lt;font style=&quot;color: rgb(51, 0, 0); font-size: 13px;&quot;&gt;&lt;b&gt;&amp;nbsp; &amp;nbsp; &amp;nbsp; &amp;nbsp; &amp;nbsp;&amp;nbsp;&lt;/b&gt;&lt;/font&gt;&lt;font color=&quot;#330000&quot;&gt;&lt;span style=&quot;font-size: 13px;&quot;&gt;&lt;b&gt;时间维度控制&lt;/b&gt;&lt;/span&gt;&lt;/font&gt;" style="rounded=1;absoluteArcSize=1;arcSize=2;html=1;strokeColor=none;gradientColor=none;shadow=0;dashed=0;fontSize=12;fontColor=#9E9E9E;align=left;verticalAlign=top;spacing=10;spacingTop=-4;fillColor=#EFEBE9;" vertex="1" parent="1">
          <mxGeometry x="404.75" y="610" width="210" height="160" as="geometry" />
        </mxCell>
        <mxCell id="CSGueSKlKxgK1yheR6nM-34" value="&lt;div style=&quot;&quot;&gt;&lt;font style=&quot;background-color: transparent; color: light-dark(rgb(0, 0, 0), rgb(255, 255, 255)); font-size: 19px;&quot;&gt;▸&lt;/font&gt;&lt;span style=&quot;background-color: transparent;&quot;&gt;&lt;b&gt;延时启动&lt;/b&gt;&lt;/span&gt;&lt;b style=&quot;background-color: transparent; color: light-dark(rgb(0, 0, 0), rgb(255, 255, 255));&quot;&gt;:&lt;/b&gt;&lt;/div&gt;&lt;div style=&quot;&quot;&gt;&lt;font style=&quot;background-color: transparent; color: light-dark(rgb(0, 0, 0), rgb(255, 255, 255));&quot;&gt;&amp;nbsp; &amp;nbsp; &amp;nbsp;支持工作流触发后延迟指定时间再执行&lt;br&gt;&lt;font style=&quot;color: light-dark(rgb(0, 0, 0), rgb(255, 255, 255)); background-color: transparent; font-size: 19px;&quot;&gt;▸&lt;/font&gt;&lt;/font&gt;&lt;span style=&quot;background-color: transparent;&quot;&gt;&lt;b&gt;节点执行超时&lt;/b&gt;&lt;/span&gt;&lt;b style=&quot;background-color: transparent; color: light-dark(rgb(0, 0, 0), rgb(255, 255, 255));&quot;&gt;:&lt;/b&gt;&lt;/div&gt;&lt;div style=&quot;&quot;&gt;&lt;font style=&quot;background-color: transparent; color: light-dark(rgb(0, 0, 0), rgb(255, 255, 255));&quot;&gt;&lt;font style=&quot;color: light-dark(rgb(0, 0, 0), rgb(255, 255, 255)); background-color: transparent;&quot;&gt;&amp;nbsp; &amp;nbsp; &amp;nbsp;防止单个任务意外阻塞，影响&amp;nbsp; &amp;nbsp; &amp;nbsp; &amp;nbsp;整体流程&lt;/font&gt;&lt;/font&gt;&lt;/div&gt;" style="text;strokeColor=none;align=left;fillColor=none;html=1;verticalAlign=middle;whiteSpace=wrap;rounded=0;" vertex="1" parent="1">
          <mxGeometry x="418.93000000000006" y="650" width="182.93" height="110" as="geometry" />
        </mxCell>
        <mxCell id="CSGueSKlKxgK1yheR6nM-35" value="&lt;font style=&quot;color: rgb(51, 0, 0); font-size: 13px;&quot;&gt;&lt;b&gt;&amp;nbsp; &amp;nbsp; &amp;nbsp; &amp;nbsp; &amp;nbsp; &lt;/b&gt;&lt;/font&gt;&lt;font color=&quot;#330000&quot;&gt;&lt;span style=&quot;font-size: 13px;&quot;&gt;&lt;b&gt;执行路径动态规划&lt;/b&gt;&lt;/span&gt;&lt;/font&gt;" style="rounded=1;absoluteArcSize=1;arcSize=2;html=1;strokeColor=none;gradientColor=none;shadow=0;dashed=0;fontSize=12;fontColor=#9E9E9E;align=left;verticalAlign=top;spacing=10;spacingTop=-4;fillColor=#EFEBE9;" vertex="1" parent="1">
          <mxGeometry x="401.75" y="460" width="210.44974887118866" height="140" as="geometry" />
        </mxCell>
        <mxCell id="CSGueSKlKxgK1yheR6nM-36" value="&lt;div style=&quot;&quot;&gt;&lt;font style=&quot;background-color: transparent; color: light-dark(rgb(0, 0, 0), rgb(255, 255, 255)); font-size: 19px;&quot;&gt;▸&lt;/font&gt;&lt;span style=&quot;background-color: transparent;&quot;&gt;&lt;b&gt;不可达路径剪裁&lt;/b&gt;&lt;/span&gt;&lt;b style=&quot;background-color: transparent; color: light-dark(rgb(0, 0, 0), rgb(255, 255, 255));&quot;&gt;:&lt;/b&gt;&lt;/div&gt;&lt;div style=&quot;&quot;&gt;&lt;font style=&quot;background-color: transparent; color: light-dark(rgb(0, 0, 0), rgb(255, 255, 255));&quot;&gt;&amp;nbsp; &amp;nbsp; &amp;nbsp;当决策导致分支不可达时，系&amp;nbsp; &amp;nbsp; &amp;nbsp; &amp;nbsp;统会自动识别并跳过相关节点&lt;br&gt;&lt;br&gt;&lt;/font&gt;&lt;/div&gt;" style="text;strokeColor=none;align=left;fillColor=none;html=1;verticalAlign=middle;whiteSpace=wrap;rounded=0;" vertex="1" parent="1">
          <mxGeometry x="417.06999999999994" y="500" width="177.68" height="90" as="geometry" />
        </mxCell>
        <mxCell id="CSGueSKlKxgK1yheR6nM-37" value="" style="verticalLabelPosition=bottom;html=1;verticalAlign=top;align=center;strokeColor=none;fillColor=#00BEF2;shape=mxgraph.azure.laptop;pointerEvents=1;aspect=fixed;" vertex="1" parent="1">
          <mxGeometry x="415.75" y="470" width="25" height="15" as="geometry" />
        </mxCell>
        <mxCell id="CSGueSKlKxgK1yheR6nM-38" value="" style="html=1;verticalLabelPosition=bottom;align=center;labelBackgroundColor=#ffffff;verticalAlign=top;strokeWidth=2;strokeColor=#0080F0;shadow=0;dashed=0;shape=mxgraph.ios7.icons.data;aspect=fixed;" vertex="1" parent="1">
          <mxGeometry x="418.75" y="619" width="20" height="24.25" as="geometry" />
        </mxCell>
        <mxCell id="CSGueSKlKxgK1yheR6nM-26" value="&lt;font style=&quot;color: rgb(51, 0, 0); font-size: 13px;&quot;&gt;&lt;b&gt;&amp;nbsp; &amp;nbsp; &amp;nbsp; &amp;nbsp; &amp;nbsp; 动态决策节点&lt;/b&gt;&lt;/font&gt;" style="rounded=1;absoluteArcSize=1;arcSize=2;html=1;strokeColor=none;gradientColor=none;shadow=0;dashed=0;fontSize=12;fontColor=#9E9E9E;align=left;verticalAlign=top;spacing=10;spacingTop=-4;fillColor=#EFEBE9;" vertex="1" parent="1">
          <mxGeometry x="400" y="205" width="214.75" height="145" as="geometry" />
        </mxCell>
        <mxCell id="CSGueSKlKxgK1yheR6nM-27" value="&lt;div style=&quot;&quot;&gt;&lt;font style=&quot;background-color: transparent; color: light-dark(rgb(0, 0, 0), rgb(255, 255, 255)); font-size: 19px;&quot;&gt;▸&lt;/font&gt;&lt;font style=&quot;background-color: transparent; color: light-dark(rgb(0, 0, 0), rgb(255, 255, 255));&quot;&gt;&lt;b&gt;业务逻辑注入:&lt;/b&gt;&lt;br&gt;&amp;nbsp; &amp;nbsp; &amp;nbsp;标准支持通过Groovy脚本实现复&amp;nbsp; &amp;nbsp; &amp;nbsp; &amp;nbsp;杂的业务逻辑判断&lt;/font&gt;&lt;/div&gt;&lt;div style=&quot;&quot;&gt;&lt;font style=&quot;background-color: transparent; color: light-dark(rgb(0, 0, 0), rgb(255, 255, 255));&quot;&gt;&lt;font style=&quot;color: light-dark(rgb(0, 0, 0), rgb(255, 255, 255)); background-color: transparent; font-size: 19px;&quot;&gt;▸&lt;/font&gt;&lt;font style=&quot;color: light-dark(rgb(0, 0, 0), rgb(255, 255, 255)); background-color: transparent;&quot;&gt;&lt;b&gt;上下文感知:&lt;/b&gt;&lt;br&gt;&amp;nbsp; &amp;nbsp; &amp;nbsp;脚本可访问工作流全局上下文，&amp;nbsp; &amp;nbsp; &amp;nbsp; &amp;nbsp;实现动态决策&lt;/font&gt;&lt;br&gt;&lt;br&gt;&lt;/font&gt;&lt;/div&gt;" style="text;strokeColor=none;align=left;fillColor=none;html=1;verticalAlign=middle;whiteSpace=wrap;rounded=0;" vertex="1" parent="1">
          <mxGeometry x="413.86" y="249" width="194.36" height="109" as="geometry" />
        </mxCell>
        <mxCell id="CSGueSKlKxgK1yheR6nM-28" value="" style="sketch=0;outlineConnect=0;fontColor=#232F3E;gradientColor=none;fillColor=#01A88D;strokeColor=none;dashed=0;verticalLabelPosition=bottom;verticalAlign=top;align=center;html=1;fontSize=12;fontStyle=0;aspect=fixed;pointerEvents=1;shape=mxgraph.aws4.sagemaker_model;" vertex="1" parent="1">
          <mxGeometry x="415.6418816388467" y="211" width="25" height="25" as="geometry" />
        </mxCell>
        <mxCell id="CSGueSKlKxgK1yheR6nM-30" value="&lt;font style=&quot;color: rgb(51, 0, 0); font-size: 13px;&quot;&gt;&lt;b&gt;&amp;nbsp; &amp;nbsp; &amp;nbsp; &amp;nbsp; &amp;nbsp; 基础执行控制&lt;/b&gt;&lt;/font&gt;" style="rounded=1;absoluteArcSize=1;arcSize=2;html=1;strokeColor=none;gradientColor=none;shadow=0;dashed=0;fontSize=12;fontColor=#9E9E9E;align=left;verticalAlign=top;spacing=10;spacingTop=-4;fillColor=#EFEBE9;" vertex="1" parent="1">
          <mxGeometry x="400.88" y="355" width="213.86999999999998" height="100" as="geometry" />
        </mxCell>
        <mxCell id="CSGueSKlKxgK1yheR6nM-31" value="&lt;div style=&quot;&quot;&gt;&lt;font style=&quot;background-color: transparent; color: light-dark(rgb(0, 0, 0), rgb(255, 255, 255)); font-size: 19px;&quot;&gt;▸&lt;/font&gt;&lt;font style=&quot;background-color: transparent; color: light-dark(rgb(0, 0, 0), rgb(255, 255, 255));&quot;&gt;&lt;b&gt;节点启用/禁用:&lt;/b&gt;&lt;br&gt;&lt;div style=&quot;&quot;&gt;&lt;span style=&quot;background-color: transparent; color: light-dark(rgb(0, 0, 0), rgb(255, 255, 255));&quot;&gt;&amp;nbsp; &amp;nbsp; &amp;nbsp;工作流保存时自动进行环路和&amp;nbsp; &amp;nbsp; &amp;nbsp; &amp;nbsp; &amp;nbsp; &amp;nbsp; &amp;nbsp;配置的有效性检查&lt;/span&gt;&lt;/div&gt;&lt;/font&gt;&lt;/div&gt;" style="text;strokeColor=none;align=left;fillColor=none;html=1;verticalAlign=middle;whiteSpace=wrap;rounded=0;" vertex="1" parent="1">
          <mxGeometry x="413.8614871016692" y="386" width="200.88851289833082" height="70" as="geometry" />
        </mxCell>
        <mxCell id="CSGueSKlKxgK1yheR6nM-32" value="" style="sketch=0;html=1;aspect=fixed;strokeColor=none;shadow=0;fillColor=#3B8DF1;verticalAlign=top;labelPosition=center;verticalLabelPosition=bottom;shape=mxgraph.gcp2.check" vertex="1" parent="1">
          <mxGeometry x="418.8853226100152" y="366" width="25" height="20" as="geometry" />
        </mxCell>
        <mxCell id="CSGueSKlKxgK1yheR6nM-39" value="&lt;font style=&quot;color: rgb(51, 0, 0); font-size: 14px;&quot;&gt;&lt;b style=&quot;&quot;&gt;&amp;nbsp; &amp;nbsp; &amp;nbsp; &amp;nbsp; &amp;nbsp;&amp;nbsp;&lt;/b&gt;&lt;/font&gt;&lt;font color=&quot;#330000&quot;&gt;&lt;span style=&quot;font-size: 14px;&quot;&gt;&lt;b&gt;全维度异常管控&lt;/b&gt;&lt;/span&gt;&lt;/font&gt;" style="rounded=1;absoluteArcSize=1;arcSize=2;html=1;strokeColor=#4284F3;gradientColor=none;shadow=0;dashed=1;fontSize=12;fontColor=#9E9E9E;align=left;verticalAlign=top;spacing=10;spacingTop=-4;fillColor=none;dashPattern=1 2;strokeWidth=2;" vertex="1" parent="1">
          <mxGeometry x="670" y="170" width="234.75" height="610" as="geometry" />
        </mxCell>
        <mxCell id="CSGueSKlKxgK1yheR6nM-40" value="" style="outlineConnect=0;dashed=0;verticalLabelPosition=bottom;verticalAlign=top;align=center;html=1;shape=mxgraph.aws3.alexa_smart_home_skill;fillColor=#5294CF;gradientColor=none;aspect=fixed;" vertex="1" parent="1">
          <mxGeometry x="679" y="175" width="30" height="23.5" as="geometry" />
        </mxCell>
        <mxCell id="CSGueSKlKxgK1yheR6nM-41" value="&lt;font style=&quot;color: rgb(51, 0, 0); font-size: 13px;&quot;&gt;&lt;b&gt;&amp;nbsp; &amp;nbsp; &amp;nbsp; &amp;nbsp; &amp;nbsp;&amp;nbsp;&lt;/b&gt;&lt;/font&gt;&lt;font color=&quot;#330000&quot;&gt;&lt;span style=&quot;font-size: 13px;&quot;&gt;&lt;b&gt;异常传播隔离&lt;/b&gt;&lt;/span&gt;&lt;/font&gt;" style="rounded=1;absoluteArcSize=1;arcSize=2;html=1;strokeColor=none;gradientColor=none;shadow=0;dashed=0;fontSize=12;fontColor=#9E9E9E;align=left;verticalAlign=top;spacing=10;spacingTop=-4;fillColor=#EFEBE9;" vertex="1" parent="1">
          <mxGeometry x="684.75" y="610" width="210" height="160" as="geometry" />
        </mxCell>
        <mxCell id="CSGueSKlKxgK1yheR6nM-42" value="&lt;div style=&quot;&quot;&gt;&lt;font style=&quot;background-color: transparent; color: light-dark(rgb(0, 0, 0), rgb(255, 255, 255)); font-size: 19px;&quot;&gt;▸&lt;/font&gt;&lt;span style=&quot;background-color: transparent;&quot;&gt;&lt;b&gt;并行分支保护&lt;/b&gt;&lt;b style=&quot;color: light-dark(rgb(0, 0, 0), rgb(255, 255, 255));&quot;&gt;:&lt;/b&gt;&lt;/span&gt;&lt;/div&gt;&lt;div style=&quot;&quot;&gt;&lt;font style=&quot;background-color: transparent; color: light-dark(rgb(0, 0, 0), rgb(255, 255, 255));&quot;&gt;&amp;nbsp; &amp;nbsp; &amp;nbsp;一个分支的失败不会影响其他并行分支的执行&lt;br&gt;&lt;br&gt;&lt;/font&gt;&lt;/div&gt;" style="text;strokeColor=none;align=left;fillColor=none;html=1;verticalAlign=middle;whiteSpace=wrap;rounded=0;" vertex="1" parent="1">
          <mxGeometry x="698.9300000000001" y="650" width="182.93" height="110" as="geometry" />
        </mxCell>
        <mxCell id="CSGueSKlKxgK1yheR6nM-43" value="&lt;font style=&quot;color: rgb(51, 0, 0); font-size: 13px;&quot;&gt;&lt;b&gt;&amp;nbsp; &amp;nbsp; &amp;nbsp; &amp;nbsp; &amp;nbsp;&amp;nbsp;&lt;/b&gt;&lt;/font&gt;&lt;font color=&quot;#330000&quot;&gt;&lt;span style=&quot;font-size: 13px;&quot;&gt;&lt;b&gt;运行时恢复与干预&lt;/b&gt;&lt;/span&gt;&lt;/font&gt;" style="rounded=1;absoluteArcSize=1;arcSize=2;html=1;strokeColor=none;gradientColor=none;shadow=0;dashed=0;fontSize=12;fontColor=#9E9E9E;align=left;verticalAlign=top;spacing=10;spacingTop=-4;fillColor=#EFEBE9;" vertex="1" parent="1">
          <mxGeometry x="681.75" y="460" width="210.44974887118866" height="140" as="geometry" />
        </mxCell>
        <mxCell id="CSGueSKlKxgK1yheR6nM-44" value="&lt;div style=&quot;&quot;&gt;&lt;font style=&quot;background-color: transparent; color: light-dark(rgb(0, 0, 0), rgb(255, 255, 255)); font-size: 19px;&quot;&gt;▸&lt;/font&gt;&lt;span style=&quot;background-color: transparent;&quot;&gt;&lt;b&gt;断点续跑&lt;/b&gt;&lt;/span&gt;&lt;b style=&quot;background-color: transparent; color: light-dark(rgb(0, 0, 0), rgb(255, 255, 255));&quot;&gt;:&lt;/b&gt;&lt;/div&gt;&lt;div style=&quot;&quot;&gt;&lt;font style=&quot;background-color: transparent; color: light-dark(rgb(0, 0, 0), rgb(255, 255, 255));&quot;&gt;&amp;nbsp; &amp;nbsp; &amp;nbsp;允许从任意失败的节点处恢复&amp;nbsp; &amp;nbsp; &amp;nbsp; &amp;nbsp;执行工作流&lt;/font&gt;&lt;/div&gt;&lt;div style=&quot;&quot;&gt;&lt;font style=&quot;background-color: transparent;&quot;&gt;&lt;div style=&quot;&quot;&gt;&lt;font style=&quot;color: light-dark(rgb(0, 0, 0), rgb(255, 255, 255)); background-color: transparent; font-size: 19px;&quot;&gt;▸&lt;/font&gt;&lt;span style=&quot;background-color: transparent;&quot;&gt;&lt;b&gt;人工干预接口&lt;/b&gt;&lt;b style=&quot;color: light-dark(rgb(0, 0, 0), rgb(255, 255, 255));&quot;&gt;:&lt;/b&gt;&lt;/span&gt;&lt;/div&gt;&lt;div style=&quot;color: light-dark(rgb(0, 0, 0), rgb(255, 255, 255));&quot;&gt;&lt;font style=&quot;background-color: transparent; color: light-dark(rgb(0, 0, 0), rgb(255, 255, 255));&quot;&gt;&amp;nbsp; &amp;nbsp; &amp;nbsp;可手动将失败节点标记为成功，强制流程继续&lt;span style=&quot;white-space: pre;&quot;&gt;&#x9;&lt;/span&gt;&lt;/font&gt;&lt;/div&gt;&lt;br&gt;&lt;/font&gt;&lt;/div&gt;" style="text;strokeColor=none;align=left;fillColor=none;html=1;verticalAlign=middle;whiteSpace=wrap;rounded=0;" vertex="1" parent="1">
          <mxGeometry x="697.0699999999999" y="500" width="177.68" height="90" as="geometry" />
        </mxCell>
        <mxCell id="CSGueSKlKxgK1yheR6nM-45" value="" style="verticalLabelPosition=bottom;html=1;verticalAlign=top;align=center;strokeColor=none;fillColor=#00BEF2;shape=mxgraph.azure.laptop;pointerEvents=1;aspect=fixed;" vertex="1" parent="1">
          <mxGeometry x="695.75" y="470" width="25" height="15" as="geometry" />
        </mxCell>
        <mxCell id="CSGueSKlKxgK1yheR6nM-46" value="" style="html=1;verticalLabelPosition=bottom;align=center;labelBackgroundColor=#ffffff;verticalAlign=top;strokeWidth=2;strokeColor=#0080F0;shadow=0;dashed=0;shape=mxgraph.ios7.icons.data;aspect=fixed;" vertex="1" parent="1">
          <mxGeometry x="698.75" y="619" width="20" height="24.25" as="geometry" />
        </mxCell>
        <mxCell id="CSGueSKlKxgK1yheR6nM-47" value="&lt;font style=&quot;color: rgb(51, 0, 0); font-size: 13px;&quot;&gt;&lt;b&gt;&amp;nbsp; &amp;nbsp; &amp;nbsp; &amp;nbsp; &amp;nbsp;&amp;nbsp;&lt;/b&gt;&lt;/font&gt;&lt;font color=&quot;#330000&quot;&gt;&lt;span style=&quot;font-size: 13px;&quot;&gt;&lt;b&gt;节点级容错策略&lt;/b&gt;&lt;/span&gt;&lt;/font&gt;" style="rounded=1;absoluteArcSize=1;arcSize=2;html=1;strokeColor=none;gradientColor=none;shadow=0;dashed=0;fontSize=12;fontColor=#9E9E9E;align=left;verticalAlign=top;spacing=10;spacingTop=-4;fillColor=#EFEBE9;" vertex="1" parent="1">
          <mxGeometry x="680" y="205" width="214.75" height="145" as="geometry" />
        </mxCell>
        <mxCell id="CSGueSKlKxgK1yheR6nM-48" value="&lt;div style=&quot;&quot;&gt;&lt;font style=&quot;background-color: transparent; color: light-dark(rgb(0, 0, 0), rgb(255, 255, 255)); font-size: 19px;&quot;&gt;▸&lt;/font&gt;&lt;span style=&quot;background-color: transparent;&quot;&gt;&lt;b&gt;失败跳过策略&lt;/b&gt;&lt;/span&gt;&lt;b style=&quot;background-color: transparent; color: light-dark(rgb(0, 0, 0), rgb(255, 255, 255));&quot;&gt;:&lt;/b&gt;&lt;/div&gt;&lt;div style=&quot;&quot;&gt;&lt;font style=&quot;background-color: transparent; color: light-dark(rgb(0, 0, 0), rgb(255, 255, 255));&quot;&gt;&amp;nbsp; &amp;nbsp; &amp;nbsp;允许非关键任务失败后，工作流主干依然能继续执行&lt;/font&gt;&lt;/div&gt;&lt;div style=&quot;&quot;&gt;&lt;font style=&quot;background-color: transparent; color: light-dark(rgb(0, 0, 0), rgb(255, 255, 255));&quot;&gt;&lt;br&gt;&lt;br&gt;&lt;/font&gt;&lt;/div&gt;" style="text;strokeColor=none;align=left;fillColor=none;html=1;verticalAlign=middle;whiteSpace=wrap;rounded=0;" vertex="1" parent="1">
          <mxGeometry x="693.86" y="249" width="194.36" height="109" as="geometry" />
        </mxCell>
        <mxCell id="CSGueSKlKxgK1yheR6nM-49" value="" style="sketch=0;outlineConnect=0;fontColor=#232F3E;gradientColor=none;fillColor=#01A88D;strokeColor=none;dashed=0;verticalLabelPosition=bottom;verticalAlign=top;align=center;html=1;fontSize=12;fontStyle=0;aspect=fixed;pointerEvents=1;shape=mxgraph.aws4.sagemaker_model;" vertex="1" parent="1">
          <mxGeometry x="695.6418816388467" y="211" width="25" height="25" as="geometry" />
        </mxCell>
        <mxCell id="CSGueSKlKxgK1yheR6nM-50" value="&lt;font style=&quot;color: rgb(51, 0, 0); font-size: 13px;&quot;&gt;&lt;b&gt;&amp;nbsp; &amp;nbsp; &amp;nbsp; &amp;nbsp; &amp;nbsp;&amp;nbsp;&lt;/b&gt;&lt;/font&gt;&lt;font color=&quot;#330000&quot;&gt;&lt;span style=&quot;font-size: 13px;&quot;&gt;&lt;b&gt;可配置重试机制&lt;/b&gt;&lt;/span&gt;&lt;/font&gt;" style="rounded=1;absoluteArcSize=1;arcSize=2;html=1;strokeColor=none;gradientColor=none;shadow=0;dashed=0;fontSize=12;fontColor=#9E9E9E;align=left;verticalAlign=top;spacing=10;spacingTop=-4;fillColor=#EFEBE9;" vertex="1" parent="1">
          <mxGeometry x="680.88" y="355" width="213.86999999999998" height="100" as="geometry" />
        </mxCell>
        <mxCell id="CSGueSKlKxgK1yheR6nM-51" value="&lt;div style=&quot;&quot;&gt;&lt;font style=&quot;background-color: transparent; color: light-dark(rgb(0, 0, 0), rgb(255, 255, 255)); font-size: 19px;&quot;&gt;▸&lt;/font&gt;&lt;span style=&quot;background-color: transparent;&quot;&gt;&lt;b&gt;实例/任务双重粒度&lt;/b&gt;&lt;/span&gt;&lt;b style=&quot;background-color: transparent; color: light-dark(rgb(0, 0, 0), rgb(255, 255, 255));&quot;&gt;:&lt;/b&gt;&lt;/div&gt;&lt;div style=&quot;&quot;&gt;&lt;font style=&quot;background-color: transparent;&quot;&gt;&lt;div style=&quot;&quot;&gt;&lt;span style=&quot;color: light-dark(rgb(0, 0, 0), rgb(255, 255, 255)); background-color: transparent;&quot;&gt;&amp;nbsp; &amp;nbsp; &amp;nbsp;&lt;/span&gt;&lt;span style=&quot;background-color: transparent;&quot;&gt;支持在任务和子任务两个&lt;/span&gt;&lt;span style=&quot;background-color: transparent;&quot;&gt;维度上配置重试次数&lt;/span&gt;&lt;/div&gt;&lt;/font&gt;&lt;/div&gt;" style="text;strokeColor=none;align=left;fillColor=none;html=1;verticalAlign=middle;whiteSpace=wrap;rounded=0;" vertex="1" parent="1">
          <mxGeometry x="693.8614871016691" y="386" width="200.88851289833082" height="70" as="geometry" />
        </mxCell>
        <mxCell id="CSGueSKlKxgK1yheR6nM-52" value="" style="sketch=0;html=1;aspect=fixed;strokeColor=none;shadow=0;fillColor=#3B8DF1;verticalAlign=top;labelPosition=center;verticalLabelPosition=bottom;shape=mxgraph.gcp2.check" vertex="1" parent="1">
          <mxGeometry x="698.8853226100152" y="366" width="25" height="20" as="geometry" />
        </mxCell>
      </root>
    </mxGraphModel>
  </diagram>
</mxfile>
